<svg width="45" height="40" viewBox="0 0 45 40" fill="none" xmlns="http://www.w3.org/2000/svg">
<rect width="45" height="40" fill="#E5E5E5"/>
<g clip-path="url(#clip0)">
<rect width="1920" height="5159" transform="translate(-1421 -5064)" fill="#F9F9F9"/>
<rect x="-1421" y="-56" width="1920" height="151" fill="#34547A"/>
<g clip-path="url(#clip1)">
<path d="M44.1431 29.2C44.0901 29.0956 44.0407 29.009 43.9948 28.9396C43.2358 27.6897 41.7852 26.1555 39.6441 24.3366L39.5988 24.295L39.5762 24.2746L39.5533 24.2536H39.5303C38.5585 23.4067 37.9432 22.8372 37.6855 22.5456C37.2139 21.9902 37.1083 21.428 37.366 20.8584C37.5481 20.428 38.232 19.5191 39.4161 18.1305C40.039 17.3945 40.5323 16.8047 40.8966 16.3603C43.524 13.1668 44.663 11.1261 44.3136 10.2374L44.1779 10.0297C44.0867 9.90467 43.8513 9.7903 43.4721 9.68598C43.092 9.58189 42.6062 9.56468 42.0138 9.63405L35.4537 9.67548C35.3474 9.64105 35.1957 9.64426 34.998 9.68598C34.8005 9.72771 34.7017 9.74864 34.7017 9.74864L34.5875 9.8008L34.4969 9.86346C34.421 9.90489 34.3374 9.97776 34.2462 10.0819C34.1555 10.1857 34.0796 10.3075 34.019 10.4464C33.3048 12.1264 32.4927 13.6883 31.5814 15.1322C31.0195 15.9932 30.5034 16.7393 30.0321 17.3711C29.5615 18.0027 29.1666 18.468 28.848 18.7663C28.5289 19.0648 28.2408 19.304 27.9822 19.4847C27.7239 19.6655 27.5268 19.7418 27.3903 19.7139C27.2534 19.6859 27.1246 19.6582 27.0026 19.6305C26.7901 19.5055 26.6192 19.3354 26.4904 19.1203C26.361 18.9051 26.2738 18.6342 26.2283 18.3079C26.183 17.9814 26.1562 17.7006 26.1485 17.4645C26.1414 17.2286 26.1447 16.8951 26.1601 16.4647C26.1759 16.0341 26.183 15.7428 26.183 15.59C26.183 15.0623 26.1942 14.4896 26.2168 13.8718C26.2398 13.2539 26.2584 12.7644 26.2739 12.4038C26.2894 12.0428 26.2966 11.6608 26.2966 11.2582C26.2966 10.8555 26.2698 10.5397 26.2168 10.3105C26.1645 10.0816 26.0841 9.85945 25.9783 9.64404C25.8717 9.42885 25.7158 9.26239 25.5113 9.14422C25.3063 9.0262 25.0515 8.93253 24.7482 8.86294C23.9433 8.69641 22.9183 8.60632 21.6728 8.59232C18.8484 8.5646 17.0335 8.73135 16.2287 9.09236C15.9098 9.24488 15.6212 9.45329 15.3632 9.71691C15.0898 10.0225 15.0516 10.1892 15.249 10.2167C16.1603 10.3415 16.8054 10.64 17.1851 11.1121L17.322 11.3622C17.4284 11.5427 17.5347 11.8622 17.641 12.3202C17.7472 12.7783 17.8157 13.2851 17.8459 13.8402C17.9217 14.8539 17.9217 15.7217 17.8459 16.4435C17.7699 17.1657 17.6981 17.7279 17.6295 18.1305C17.561 18.5332 17.4586 18.8595 17.322 19.1093C17.1851 19.3592 17.0941 19.512 17.0485 19.5674C17.0029 19.6229 16.9649 19.6578 16.9348 19.6715C16.7374 19.7407 16.5321 19.7759 16.3196 19.7759C16.1069 19.7759 15.8488 19.6786 15.5452 19.4841C15.2416 19.2896 14.9265 19.0225 14.6 18.6823C14.2734 18.342 13.9051 17.8665 13.495 17.2556C13.0851 16.6448 12.6599 15.9229 12.2195 15.0898L11.8551 14.4857C11.6273 14.097 11.3162 13.5311 10.9213 12.7885C10.5262 12.0455 10.177 11.3269 9.87344 10.6327C9.75209 10.3411 9.56979 10.1191 9.32684 9.96639L9.21283 9.90372C9.13704 9.84829 9.01537 9.78942 8.84846 9.72669C8.68131 9.66403 8.50691 9.61909 8.32452 9.59145L2.08313 9.63288C1.44534 9.63288 1.01259 9.76498 0.784727 10.0288L0.693534 10.1536C0.647978 10.2232 0.625 10.3342 0.625 10.487C0.625 10.6397 0.670556 10.8272 0.761749 11.0492C1.67288 13.007 2.66371 14.8952 3.73425 16.714C4.80479 18.5328 5.73506 19.9979 6.52452 21.108C7.31414 22.2189 8.119 23.2673 8.9391 24.2528C9.75919 25.2387 10.302 25.8704 10.5676 26.148C10.8336 26.4261 11.0424 26.634 11.1943 26.7728L11.7638 27.2725C12.1283 27.6058 12.6635 28.005 13.3696 28.47C14.076 28.9353 14.8579 29.3934 15.7159 29.845C16.5741 30.2959 17.5724 30.6638 18.7115 30.9484C19.8504 31.2332 20.9589 31.3475 22.0372 31.2924H24.6568C25.1881 31.2504 25.5906 31.0977 25.8642 30.8341L25.9548 30.7297C26.0157 30.6468 26.0728 30.5181 26.1255 30.3448C26.1787 30.1713 26.2052 29.9801 26.2052 29.7721C26.1897 29.1752 26.2394 28.6373 26.353 28.1583C26.4665 27.6795 26.5959 27.3185 26.7407 27.0754C26.8853 26.8324 27.0485 26.6275 27.2302 26.4613C27.4123 26.2948 27.542 26.1939 27.6181 26.1592C27.6938 26.1242 27.7542 26.1005 27.7997 26.0863C28.1642 25.9753 28.5931 26.0828 29.0871 26.4094C29.5807 26.7356 30.0437 27.1385 30.4768 27.6173C30.9096 28.0966 31.4296 28.6343 32.0369 29.2312C32.6447 29.8283 33.176 30.2722 33.6314 30.5642L34.0868 30.8141C34.391 30.9808 34.7858 31.1336 35.2719 31.2724C35.757 31.4111 36.1821 31.4459 36.5471 31.3765L42.3783 31.2933C42.955 31.2933 43.4038 31.206 43.7221 31.0328C44.0411 30.8592 44.2306 30.668 44.2917 30.4601C44.3527 30.2519 44.3559 30.0157 44.3033 29.7516C44.2493 29.4882 44.196 29.304 44.1431 29.2Z" fill="white"/>
</g>
</g>
<defs>
<clipPath id="clip0">
<rect width="1920" height="5159" fill="white" transform="translate(-1421 -5064)"/>
</clipPath>
<clipPath id="clip1">
<rect width="43.75" height="40" fill="white" transform="translate(0.625)"/>
</clipPath>
</defs>
</svg>
